# xmcd CD database file
#
# Track frame offsets:
#	150
#	25227
#	59142
#	83877
#	120600
#	134762
#	156537
#	179340
#	209597
#	221460
#	244005
#	260267
#	285467
#
# Disc length: 4250 seconds
#
# Revision: 0
# Processed by: cddbd v1.5.2PL0 Copyright (c) Steve Scherf et al.
# Submitted via: CDex 1.51
#
DISCID=ca10980d
DTITLE=Keistad Jazz - Rotary goes Jazzy
DYEAR=1995
DGENRE=Jazz
TTITLE0=Pay as your earn - Joris Teepe - Don Braden
TTITLE1=Mister W - Hein de Jong
TTITLE2=Sleepless hours - Ingram Washington
TTITLE3=Song for my sister - Dirk Balthaus - Bert Lochs
TTITLE4=Don't be that way - New Metronome Bigband
TTITLE5=Conjure - VanDoorn
TTITLE6=Meditation - Earwax Saxophone Band
TTITLE7=Pôle Pôle - Markus Türk
TTITLE8=For once in my life - Denise Jannah
TTITLE9=The Session - Harry Verbeke
TTITLE10=Private eye - Paulus Potters
TTITLE11=Face the music - Krieken/van Kempen
TTITLE12=My horny little Sea-Horse - Second Vision
EXTD=YEAR: 1995
EXTT0=
EXTT1=
EXTT2=
EXTT3=
EXTT4=
EXTT5=
EXTT6=
EXTT7=
EXTT8=
EXTT9=
EXTT10=
EXTT11=
EXTT12=
PLAYORDER=
